<svg width="56" height="56" viewBox="0 0 56 56" fill="none" xmlns="http://www.w3.org/2000/svg">
<rect width="56" height="55.7662" rx="27.8831" fill="white"/>
<path d="M30.4158 15.1044C30.4655 15.1157 30.5152 15.1211 30.5641 15.1211C30.8715 15.1211 31.1489 14.9086 31.2193 14.5957L31.8693 11.7063C31.9509 11.3436 31.7235 10.9834 31.3613 10.9016C30.9991 10.8197 30.6394 11.0477 30.5577 11.4104L29.9077 14.2998C29.8262 14.6625 30.0537 15.0227 30.4158 15.1044Z" fill="#C64756"/>
<path d="M27.2476 14.1875C27.3754 14.3902 27.5935 14.5011 27.8165 14.5011C27.9392 14.5011 28.0635 14.4674 28.1749 14.3969C28.4887 14.1983 28.5824 13.7825 28.3841 13.4682L26.8046 10.9655C26.6063 10.6513 26.1911 10.5577 25.8772 10.7561C25.5634 10.9547 25.4697 11.3705 25.6681 11.6847L27.2476 14.1875Z" fill="#C64756"/>
<path d="M33.3118 15.7409C33.4347 15.7409 33.5589 15.7071 33.6705 15.6366L36.1717 14.0529C36.4855 13.8543 36.5791 13.4385 36.3807 13.1243C36.1823 12.8102 35.7671 12.7164 35.4533 12.9151L32.952 14.4987C32.6382 14.6974 32.5446 15.1131 32.7431 15.4273C32.871 15.6299 33.089 15.7409 33.3118 15.7409V15.7409Z" fill="#C64756"/>
<path d="M41.6553 39.86L37.3982 38.0245L36.0335 32.9227C37.7949 32.2638 39.2908 30.9017 40.1118 29.1775C40.9147 27.4913 40.9687 25.6496 40.2686 23.9735C40.2635 23.9611 40.2223 23.8644 40.2062 23.8286L37.28 17.2743C37.1452 16.9723 36.8112 16.8132 36.4923 16.8988L30.0604 18.6243L30.1591 17.6709C30.1929 17.3437 29.9857 17.0399 29.669 16.9525L27.5636 16.3715C27.2057 16.2727 26.8356 16.4832 26.7369 16.8416C26.6383 17.2 26.8485 17.5706 27.2064 17.6694L28.7631 18.0989L28.4757 20.8752C26.5666 19.9987 24.0601 20.0923 22.3318 21.203C20.9316 22.1028 18.706 22.1175 17.2012 21.2994L19.7136 15.674L21.4109 16.1296C21.7693 16.2259 22.1381 16.0129 22.2342 15.6537C22.3304 15.2947 22.1176 14.9256 21.759 14.8293L19.5081 14.225C19.1892 14.1393 18.8552 14.2984 18.7204 14.6003L15.792 21.1568C15.0278 22.8703 15.0616 24.7691 15.8872 26.5034C16.7083 28.2283 18.205 29.5912 19.9667 30.2506L18.602 35.3524L14.3446 37.1863C13.5863 37.5138 13.111 38.2705 13.1621 39.0692C13.2129 39.8669 13.7818 40.517 14.6466 40.7656C14.6505 40.7668 14.6544 40.7678 14.6583 40.7688L20.6097 42.3642C20.6132 42.3651 20.6167 42.3661 20.6203 42.367C20.8181 42.4166 21.013 42.4407 21.2013 42.4407C21.8452 42.4407 22.4124 42.1583 22.7549 41.6437C23.1983 40.9776 23.1647 40.0844 22.671 39.4209L19.9008 35.701L21.2654 30.5995C21.6594 30.6657 22.0588 30.6987 22.4588 30.6987C23.9421 30.6986 25.4314 30.2497 26.6696 29.3968C26.7783 29.322 26.8839 29.2443 26.9868 29.1645C27.4843 30.418 28.3851 31.488 29.5979 32.2443C30.7799 32.9814 32.1763 33.3674 33.5562 33.3674C33.9523 33.3674 34.3469 33.3353 34.7348 33.2709L36.0995 38.3728L33.3292 42.093C32.8353 42.7563 32.8009 43.6495 33.2437 44.3156C33.5864 44.8312 34.1541 45.1142 34.7988 45.1142C34.9864 45.1142 35.1805 45.0902 35.3774 45.0411C35.3813 45.0401 35.385 45.0391 35.3889 45.0381L41.3403 43.4409C41.344 43.4399 41.3478 43.4388 41.3515 43.4378C42.218 43.189 42.7875 42.5383 42.838 41.7398C42.8885 40.9413 42.4129 40.1858 41.6553 39.86V39.86ZM29.9121 20.0578L36.2866 18.3478L38.7977 23.9724C37.2936 24.7907 35.0681 24.7756 33.6668 23.8751C32.5654 23.1666 31.0723 22.8546 29.6075 22.9994L29.9121 20.0578ZM21.6363 40.8971C21.4706 41.1462 21.1383 41.1084 20.9515 41.0623L15.0124 39.4703C14.8282 39.4165 14.5229 39.2825 14.5038 38.9836C14.4918 38.7963 14.6035 38.5408 14.8765 38.4229L18.9454 36.6702L21.5931 40.2256C21.7709 40.4645 21.7401 40.7412 21.6363 40.8971ZM25.9078 28.2877C24.49 29.2642 22.5929 29.5972 20.9557 29.1563C20.9556 29.1563 20.9556 29.1563 20.9556 29.1562C20.9555 29.1562 20.9554 29.1562 20.9553 29.1561C20.9552 29.1561 20.9552 29.1561 20.9551 29.1561C19.3183 28.7182 17.8414 27.4798 17.1008 25.9242C16.5843 24.8391 16.4597 23.6758 16.7264 22.5704C17.6236 23.0233 18.6688 23.2531 19.7107 23.2531C20.9092 23.253 22.1027 22.9499 23.058 22.336C24.5015 21.4082 26.8221 21.4206 28.3267 22.3159L28.0825 24.6753C27.931 26.1433 27.1587 27.4261 25.9078 28.2877V28.2877ZM30.3087 31.1015C29.171 30.3921 28.3816 29.3418 28.0575 28.1205C28.8205 27.1811 29.2922 26.05 29.4198 24.8139L29.4655 24.373C30.7213 24.1843 32.018 24.4144 32.9404 25.0079C33.8969 25.6226 35.0908 25.9259 36.2899 25.9259C37.3313 25.9259 38.376 25.6961 39.2726 25.2435C39.5395 26.3494 39.415 27.5129 38.8983 28.598C38.1579 30.1531 36.682 31.3905 35.0449 31.828C35.0449 31.828 35.0448 31.828 35.0448 31.828C35.0448 31.828 35.0446 31.8281 35.0446 31.8281C35.0444 31.8282 35.0442 31.8283 35.044 31.8283C33.4833 32.249 31.713 31.9773 30.3087 31.1015V31.1015ZM40.9859 42.1422L35.0471 43.736C34.8604 43.7818 34.5285 43.819 34.3629 43.5697C34.2592 43.4138 34.2289 43.137 34.407 42.8977L37.0548 39.3422L41.1241 41.0968C41.3966 41.214 41.508 41.4682 41.4962 41.6548C41.4774 41.9541 41.1708 42.0882 40.9859 42.1422V42.1422Z" fill="#C64756"/>
<path d="M24.4122 16.9106C24.7835 16.9106 25.0844 16.6092 25.0844 16.2374C25.0844 15.8656 24.7835 15.5642 24.4122 15.5642H24.4083C24.037 15.5642 23.7381 15.8656 23.7381 16.2374C23.7381 16.6092 24.041 16.9106 24.4122 16.9106Z" fill="#C64756"/>
</svg>
